cyclingleg_states
version=1
nRows=8
nColumns=49
inDegrees=yes

# SIMM Motion File Header:
name cyclingleg_states
datacolumns 49
datarows 8
otherdata 1
range 0.25543837 0.29666516
endheader
time	/jointset/bb/crank_angle/value	/jointset/bb/crank_angle/speed	/jointset/spindle/pedal_angle_r/value	/jointset/spindle/pedal_angle_r/speed	/jointset/ground_pelvis/pelvis_tilt/value	/jointset/ground_pelvis/pelvis_tilt/speed	/jointset/ground_pelvis/pelvis_list/value	/jointset/ground_pelvis/pelvis_list/speed	/jointset/ground_pelvis/pelvis_rotation/value	/jointset/ground_pelvis/pelvis_rotation/speed	/jointset/ground_pelvis/pelvis_tx/value	/jointset/ground_pelvis/pelvis_tx/speed	/jointset/ground_pelvis/pelvis_ty/value	/jointset/ground_pelvis/pelvis_ty/speed	/jointset/ground_pelvis/pelvis_tz/value	/jointset/ground_pelvis/pelvis_tz/speed	/jointset/hip_r/hip_angle_r/value	/jointset/hip_r/hip_angle_r/speed	/jointset/hip_r/hip_adduction_r/value	/jointset/hip_r/hip_adduction_r/speed	/jointset/hip_r/hip_rotation_r/value	/jointset/hip_r/hip_rotation_r/speed	/jointset/knee_r/knee_angle_r/value	/jointset/knee_r/knee_angle_r/speed	/jointset/knee_r/tib_tx_r/value	/jointset/knee_r/tib_tx_r/speed	/jointset/knee_r/tib_ty_r/value	/jointset/knee_r/tib_ty_r/speed	/jointset/tib_pat_r/pat_angle_r/value	/jointset/tib_pat_r/pat_angle_r/speed	/jointset/tib_pat_r/pat_tx_r/value	/jointset/tib_pat_r/pat_tx_r/speed	/jointset/tib_pat_r/pat_ty_r/value	/jointset/tib_pat_r/pat_ty_r/speed	/jointset/ankle_r/ankle_angle_r/value	/jointset/ankle_r/ankle_angle_r/speed	/jointset/subtalar_r/subtalar_angle_r/value	/jointset/subtalar_r/subtalar_angle_r/speed	/jointset/mtp_r/mtp_angle_r/value	/jointset/mtp_r/mtp_angle_r/speed	/forceset/bifemlh_r/activation	/forceset/bifemlh_r/fiber_length	/forceset/bifemsh_r/activation	/forceset/bifemsh_r/fiber_length	/forceset/glut_max2_r/activation	/forceset/glut_max2_r/fiber_length	/forceset/vas_int_r/activation	/forceset/vas_int_r/fiber_length
      0.25543837	   -842.50196854	   -337.03840169	    906.59159080	    171.64242040	     -0.00000000	      0.00000000	      0.00000000	      0.00000000	     -0.00000000	     -0.00000000	      0.01074415	      0.86654668	     -0.05000000	      0.00000000	     -0.00000000	     -0.00000000	     29.69684328	   -133.29872942	      6.44599828	    -10.40590784	     11.16510704	    -11.88807197	    -32.06885622	     59.17089533	      0.00124754	     -0.00998552	     -0.46874202	      0.01186084	     15.70524901	     -6.71279359	      0.05024070	      0.01358194	     -0.02407114	     -0.00274090	     66.93831389	    -90.33217549	      0.00000000	      0.00000000	      0.00000000	      0.00000000	      0.02166402	      0.12323885	      0.02000000	      0.18207546	      0.02000000	      0.12548133	      0.09243367	      0.10566358
      0.26172600	   -844.66886780	   -352.07724006	    907.69612504	    179.70425950	     -0.00000000	      0.00000000	      0.00000000	      0.00000000	     -0.00000000	     -0.00000000	      0.01622318	      0.87626332	     -0.05000000	      0.00000000	     -0.00000000	     -0.00000000	     28.84308635	   -138.18027318	      6.37953305	    -10.70596374	     11.08816814	    -12.55759378	    -31.69049277	     61.01258155	      0.00118340	     -0.01038928	     -0.46866653	      0.01211572	     15.66198721	     -7.03068458	      0.05032729	      0.01392101	     -0.02408866	     -0.00282640	     66.35724158	    -94.26797148	      0.00000000	      0.00000000	      0.00000000	      0.00000000	      0.02153043	      0.12250553	      0.02000000	      0.18233840	      0.02000000	      0.12473696	      0.08556921	      0.10541304
      0.26693502	   -846.53404082	   -363.97357465	    908.64982158	    186.48722526	     -0.00000000	      0.00000000	      0.00000000	      0.00000000	     -0.00000000	     -0.00000000	      0.02080862	      0.88431042	     -0.05000000	      0.00000000	     -0.00000000	     -0.00000000	     28.11360347	   -141.84817900	      6.32340070	    -10.82730803	     11.02157833	    -12.99081953	    -31.37030935	     61.81467724	      0.00112867	     -0.01060782	     -0.46860320	      0.01217644	     15.62484798	     -7.21720632	      0.05040016	      0.01403119	     -0.02410350	     -0.00286319	     65.85992044	    -96.52762794	      0.00000000	      0.00000000	      0.00000000	      0.00000000	      0.02142796	      0.12187488	      0.02000000	      0.18247161	      0.02000000	      0.12409614	      0.08044819	      0.10519121
      0.27214403	   -848.45992547	   -375.39520250	    909.63919994	    193.41300515	     -0.00000000	      0.00000000	      0.00000000	      0.00000000	     -0.00000000	      0.00000000	      0.02543584	      0.89229083	     -0.05000000	      0.00000000	     -0.00000000	     -0.00000000	     27.36589043	   -145.18153986	      6.26692496	    -10.83884302	     10.95302891	    -13.30944239	    -31.04760334	     61.98612624	      0.00107307	     -0.01072218	     -0.46853989	      0.01211007	     15.58692135	     -7.33295367	      0.05047321	      0.01399549	     -0.02411844	     -0.00287027	     65.35318580	    -97.88426854	      0.00000000	      0.00000000	      0.00000000	      0.00000000	      0.02133236	      0.12122324	      0.02000000	      0.18266846	      0.02000000	      0.12343347	      0.07578038	      0.10496022
      0.27915153	   -851.14248940	   -390.12222886	    911.02808764	    203.06251705	     -0.00000000	      0.00000000	      0.00000000	      0.00000000	     -0.00000000	     -0.00000000	      0.03172555	      0.90278377	     -0.05000000	      0.00000000	     -0.00000000	     -0.00000000	     26.33424584	   -149.16664585	      6.19137653	    -10.69401067	     10.85878304	    -13.55366231	    -30.61508828	     61.28640456	      0.00099785	     -0.01071697	     -0.46845587	      0.01183983	     15.53530442	     -7.37801615	      0.05057052	      0.01373704	     -0.02413846	     -0.00283598	     64.66481556	    -98.32161331	      0.00000000	      0.00000000	      0.00000000	      0.00000000	      0.02121382	      0.12031355	      0.02000000	      0.18288985	      0.02000000	      0.12251245	      0.07013261	      0.10464076
      0.28219378	   -852.33875814	   -396.29629887	    911.65241556	    207.39293178	     -0.00000000	      0.00000000	      0.00000000	      0.00000000	     -0.00000000	     -0.00000000	      0.03447881	      0.90722346	     -0.05000000	      0.00000000	     -0.00000000	     -0.00000000	     25.87805629	   -150.71944521	      6.15901402	    -10.57610285	     10.81748289	    -13.59040358	    -30.42954431	     60.66074928	      0.00096533	     -0.01065788	     -0.46842011	      0.01166197	     15.51288406	     -7.35731962	      0.05061204	      0.01355359	     -0.02414705	     -0.00280596	     64.36609458	    -98.01057140	      0.00000000	      0.00000000	      0.00000000	      0.00000000	      0.02116570	      0.11990686	      0.02000000	      0.18301037	      0.02000000	      0.12209989	      0.06788355	      0.10450065
      0.28816737	   -854.74147488	   -408.07424003	    912.91738818	    216.19871460	     -0.00000000	      0.00000000	      0.00000000	      0.00000000	     -0.00000000	     -0.00000000	      0.03992361	      0.91567194	     -0.05000000	      0.00000000	     -0.00000000	      0.00000000	     24.96931470	   -153.46705481	      6.09674087	    -10.25358459	     10.73637588	    -13.53632608	    -30.07210391	     58.89581437	      0.00090224	     -0.01044377	     -0.46835171	      0.01121559	     15.46922007	     -7.24659271	      0.05069165	      0.01307753	     -0.02416357	     -0.00272189	     63.78447991	    -96.52314934	      0.00000000	      0.00000000	      0.00000000	      0.00000000	      0.02107673	      0.11908775	      0.02000000	      0.18321800	      0.02000000	      0.12127711	      0.06378809	      0.10422604
      0.29666516	   -858.27778353	   -424.07723755	    914.81047815	    229.51978987	     -0.00000000	      0.00000000	      0.00000000	      0.00000000	     -0.00000000	     -0.00000000	      0.04775338	      0.92694353	     -0.05000000	      0.00000000	     -0.00000000	      0.00000000	     23.65091005	   -156.69635021	      6.01223728	     -9.59775602	     10.62270471	    -13.15622892	    -29.58631590	     55.21678719	      0.00081554	     -0.00991738	     -0.46825981	      0.01037795	     15.40880932	     -6.94374599	      0.05079906	      0.01215471	     -0.02418601	     -0.00254792	     62.98015523	    -92.38347853	      0.00000000	      0.00000000	      0.00000000	      0.00000000	      0.02096175	      0.11787621	      0.02000000	      0.18347567	      0.02000000	      0.12007402	      0.05861558	      0.10384353
